<svg width="112" height="14" viewBox="0 0 112 14" fill="none" xmlns="http://www.w3.org/2000/svg">
<path d="M-0.000407651 12.816L2.10559 0.216039H4.57159L2.46559 12.816H-0.000407651ZM8.29759 12.816L10.4036 0.216039H12.8696L10.7636 12.816H8.29759ZM2.73559 7.50604L3.09559 5.23804H10.7276L10.3676 7.50604H2.73559ZM13.7876 12.816L15.8936 0.216039H18.3596L16.2536 12.816H13.7876ZM25.1647 13.032C23.9407 13.032 22.8907 12.786 22.0147 12.294C21.1507 11.79 20.5027 11.1 20.0707 10.224C19.6387 9.33604 19.4647 8.31604 19.5487 7.16404C19.6207 6.18004 19.8547 5.25604 20.2507 4.39204C20.6467 3.51604 21.1747 2.75404 21.8347 2.10604C22.5067 1.44604 23.2807 0.930039 24.1567 0.558039C25.0447 0.18604 25.9987 3.98159e-05 27.0187 3.98159e-05C27.8107 3.98159e-05 28.5247 0.12004 29.1607 0.360039C29.8087 0.600039 30.3607 0.930039 30.8167 1.35004C31.2727 1.75804 31.6267 2.22004 31.8787 2.73604L29.6647 3.85204C29.5087 3.52804 29.2867 3.24604 28.9987 3.00604C28.7227 2.76604 28.4047 2.58004 28.0447 2.44804C27.6847 2.31604 27.2947 2.25004 26.8747 2.25004C26.2747 2.25004 25.6987 2.37604 25.1467 2.62804C24.5947 2.86804 24.0967 3.21004 23.6527 3.65404C23.2087 4.08604 22.8427 4.59604 22.5547 5.18404C22.2787 5.77204 22.1167 6.41404 22.0687 7.11004C21.9967 7.84204 22.0807 8.48404 22.3207 9.03604C22.5607 9.58804 22.9387 10.02 23.4547 10.332C23.9707 10.632 24.5887 10.782 25.3087 10.782C25.9687 10.782 26.5747 10.65 27.1267 10.386C27.6787 10.11 28.1407 9.74404 28.5127 9.28804C28.8967 8.82004 29.1667 8.29804 29.3227 7.72204L31.7347 7.54204C31.6147 8.26204 31.3687 8.95204 30.9967 9.61204C30.6247 10.272 30.1507 10.86 29.5747 11.376C29.0107 11.892 28.3507 12.3 27.5947 12.6C26.8507 12.888 26.0407 13.032 25.1647 13.032ZM26.3347 7.99204L26.6767 6.06604H31.9687L31.7347 7.54204L30.3127 7.99204H26.3347ZM32.9437 12.816L35.0497 0.216039H37.5157L35.4097 12.816H32.9437ZM41.2417 12.816L43.3477 0.216039H45.8137L43.7077 12.816H41.2417ZM35.6797 7.50604L36.0397 5.23804H43.6717L43.3117 7.50604H35.6797Z" fill="black"/>
<path d="M46.7317 12.816L48.8377 0.216039H51.3037L49.5577 10.566H55.1197L54.7417 12.816H46.7317ZM56.6876 12.816L58.7936 0.216039H61.2596L59.1536 12.816H56.6876ZM68.0648 13.032C66.8408 13.032 65.7908 12.786 64.9148 12.294C64.0508 11.79 63.4028 11.1 62.9708 10.224C62.5388 9.33604 62.3648 8.31604 62.4488 7.16404C62.5208 6.18004 62.7548 5.25604 63.1508 4.39204C63.5468 3.51604 64.0748 2.75404 64.7348 2.10604C65.4068 1.44604 66.1808 0.930039 67.0568 0.558039C67.9448 0.18604 68.8988 3.98159e-05 69.9188 3.98159e-05C70.7108 3.98159e-05 71.4248 0.12004 72.0608 0.360039C72.7088 0.600039 73.2608 0.930039 73.7168 1.35004C74.1728 1.75804 74.5268 2.22004 74.7788 2.73604L72.5648 3.85204C72.4088 3.52804 72.1868 3.24604 71.8988 3.00604C71.6228 2.76604 71.3048 2.58004 70.9448 2.44804C70.5848 2.31604 70.1948 2.25004 69.7748 2.25004C69.1748 2.25004 68.5988 2.37604 68.0468 2.62804C67.4948 2.86804 66.9968 3.21004 66.5528 3.65404C66.1088 4.08604 65.7428 4.59604 65.4548 5.18404C65.1788 5.77204 65.0168 6.41404 64.9688 7.11004C64.8968 7.84204 64.9808 8.48404 65.2208 9.03604C65.4608 9.58804 65.8388 10.02 66.3548 10.332C66.8708 10.632 67.4888 10.782 68.2088 10.782C68.8688 10.782 69.4748 10.65 70.0268 10.386C70.5788 10.11 71.0408 9.74404 71.4128 9.28804C71.7968 8.82004 72.0668 8.29804 72.2228 7.72204L74.6348 7.54204C74.5148 8.26204 74.2688 8.95204 73.8968 9.61204C73.5248 10.272 73.0508 10.86 72.4748 11.376C71.9108 11.892 71.2508 12.3 70.4948 12.6C69.7508 12.888 68.9408 13.032 68.0648 13.032ZM69.2348 7.99204L69.5768 6.06604H74.8688L74.6348 7.54204L73.2128 7.99204H69.2348ZM75.8437 12.816L77.9497 0.216039H80.4157L78.3097 12.816H75.8437ZM84.1417 12.816L86.2477 0.216039H88.7137L86.6077 12.816H84.1417ZM78.5797 7.50604L78.9397 5.23804H86.5717L86.2117 7.50604H78.5797ZM92.2957 12.816L94.0417 2.46604H90.2617L90.6217 0.216039H100.63L100.27 2.46604H96.4897L94.7617 12.816H92.2957ZM100.125 10.512L108.495 2.28604L111.483 2.52004L103.365 10.512H100.125ZM99.7474 12.816L100.125 10.512H110.079L109.701 12.816H99.7474ZM101.529 2.52004L101.907 0.216039H111.861L111.483 2.52004H101.529Z" fill="#04D404"/>
</svg>
