<svg width="24" height="24" viewBox="0 0 24 24" fill="none" xmlns="http://www.w3.org/2000/svg">
<path d="M20 9H11C9.89543 9 9 9.89543 9 11V20C9 21.1046 9.89543 22 11 22H20C21.1046 22 22 21.1046 22 20V11C22 9.89543 21.1046 9 20 9Z" stroke="url(#paint0_linear_16956_316)" stroke-width="2" stroke-linecap="round" stroke-linejoin="round"/>
<path d="M5 15H4C3.46957 15 2.96086 14.7893 2.58579 14.4142C2.21071 14.0391 2 13.5304 2 13V4C2 3.46957 2.21071 2.96086 2.58579 2.58579C2.96086 2.21071 3.46957 2 4 2H13C13.5304 2 14.0391 2.21071 14.4142 2.58579C14.7893 2.96086 15 3.46957 15 4V5" stroke="url(#paint1_linear_16956_316)" stroke-width="2" stroke-linecap="round" stroke-linejoin="round"/>
<defs>
<linearGradient id="paint0_linear_16956_316" x1="15.5" y1="9" x2="15.5" y2="22" gradientUnits="userSpaceOnUse">
<stop stop-color="#11D000"/>
<stop offset="1" stop-color="#0C5302"/>
</linearGradient>
<linearGradient id="paint1_linear_16956_316" x1="8.5" y1="2" x2="8.5" y2="15" gradientUnits="userSpaceOnUse">
<stop stop-color="#11D000"/>
<stop offset="1" stop-color="#0C5302"/>
</linearGradient>
</defs>
</svg>
