<svg width="113" height="44" viewBox="0 0 113 44" fill="none" xmlns="http://www.w3.org/2000/svg">
<g clip-path="url(#clip0_18017_1442)">
<path d="M53.195 4.11786L50.0655 2.57195V19.9113C48.5829 20.3294 47.0001 19.2284 47.0001 17.5822V2.41757C46.9955 1.82622 47.213 1.25458 47.6097 0.81523C48.3279 0.0107752 49.566 -0.285147 50.6275 0.326705L57.0125 4.00439L57.4632 4.26388V9.18377H53.195V4.11786Z" fill="#04D404"/>
<path d="M63.7913 12.0908L58.7887 14.9732L53.1953 18.1946V11.6273H57.4635V13.7663L60.593 12.1287V6.06689L63.7913 7.91021C65.4032 8.83979 65.4032 11.1606 63.7913 12.0908Z" fill="#04D404"/>
</g>
<path d="M0.709553 40L2.81555 27.4H5.28155L3.17555 40H0.709553ZM9.00755 40L11.1136 27.4H13.5796L11.4736 40H9.00755ZM3.44555 34.69L3.80555 32.422H11.4376L11.0776 34.69H3.44555ZM14.4976 40L16.6036 27.4H19.0696L16.9636 40H14.4976ZM25.8747 40.216C24.6507 40.216 23.6007 39.97 22.7247 39.478C21.8607 38.974 21.2127 38.284 20.7807 37.408C20.3487 36.52 20.1747 35.5 20.2587 34.348C20.3307 33.364 20.5647 32.44 20.9607 31.576C21.3567 30.7 21.8847 29.938 22.5447 29.29C23.2167 28.63 23.9907 28.114 24.8667 27.742C25.7547 27.37 26.7087 27.184 27.7287 27.184C28.5207 27.184 29.2347 27.304 29.8707 27.544C30.5187 27.784 31.0707 28.114 31.5267 28.534C31.9827 28.942 32.3367 29.404 32.5887 29.92L30.3747 31.036C30.2187 30.712 29.9967 30.43 29.7087 30.19C29.4327 29.95 29.1147 29.764 28.7547 29.632C28.3947 29.5 28.0047 29.434 27.5847 29.434C26.9847 29.434 26.4087 29.56 25.8567 29.812C25.3047 30.052 24.8067 30.394 24.3627 30.838C23.9187 31.27 23.5527 31.78 23.2647 32.368C22.9887 32.956 22.8267 33.598 22.7787 34.294C22.7067 35.026 22.7907 35.668 23.0307 36.22C23.2707 36.772 23.6487 37.204 24.1647 37.516C24.6807 37.816 25.2987 37.966 26.0187 37.966C26.6787 37.966 27.2847 37.834 27.8367 37.57C28.3887 37.294 28.8507 36.928 29.2227 36.472C29.6067 36.004 29.8767 35.482 30.0327 34.906L32.4447 34.726C32.3247 35.446 32.0787 36.136 31.7067 36.796C31.3347 37.456 30.8607 38.044 30.2847 38.56C29.7207 39.076 29.0607 39.484 28.3047 39.784C27.5607 40.072 26.7507 40.216 25.8747 40.216ZM27.0447 35.176L27.3867 33.25H32.6787L32.4447 34.726L31.0227 35.176H27.0447ZM33.6536 40L35.7596 27.4H38.2256L36.1196 40H33.6536ZM41.9516 40L44.0576 27.4H46.5236L44.4176 40H41.9516ZM36.3896 34.69L36.7496 32.422H44.3816L44.0216 34.69H36.3896Z" fill="black"/>
<path d="M47.4416 40L49.5476 27.4H52.0136L50.2676 37.75H55.8296L55.4516 40H47.4416ZM57.3976 40L59.5036 27.4H61.9696L59.8636 40H57.3976ZM68.7747 40.216C67.5507 40.216 66.5007 39.97 65.6247 39.478C64.7607 38.974 64.1127 38.284 63.6807 37.408C63.2487 36.52 63.0747 35.5 63.1587 34.348C63.2307 33.364 63.4647 32.44 63.8607 31.576C64.2567 30.7 64.7847 29.938 65.4447 29.29C66.1167 28.63 66.8907 28.114 67.7667 27.742C68.6547 27.37 69.6087 27.184 70.6287 27.184C71.4207 27.184 72.1347 27.304 72.7707 27.544C73.4187 27.784 73.9707 28.114 74.4267 28.534C74.8827 28.942 75.2367 29.404 75.4887 29.92L73.2747 31.036C73.1187 30.712 72.8967 30.43 72.6087 30.19C72.3327 29.95 72.0147 29.764 71.6547 29.632C71.2947 29.5 70.9047 29.434 70.4847 29.434C69.8847 29.434 69.3087 29.56 68.7567 29.812C68.2047 30.052 67.7067 30.394 67.2627 30.838C66.8187 31.27 66.4527 31.78 66.1647 32.368C65.8887 32.956 65.7267 33.598 65.6787 34.294C65.6067 35.026 65.6907 35.668 65.9307 36.22C66.1707 36.772 66.5487 37.204 67.0647 37.516C67.5807 37.816 68.1987 37.966 68.9187 37.966C69.5787 37.966 70.1847 37.834 70.7367 37.57C71.2887 37.294 71.7507 36.928 72.1227 36.472C72.5067 36.004 72.7767 35.482 72.9327 34.906L75.3447 34.726C75.2247 35.446 74.9787 36.136 74.6067 36.796C74.2347 37.456 73.7607 38.044 73.1847 38.56C72.6207 39.076 71.9607 39.484 71.2047 39.784C70.4607 40.072 69.6507 40.216 68.7747 40.216ZM69.9447 35.176L70.2867 33.25H75.5787L75.3447 34.726L73.9227 35.176H69.9447ZM76.5537 40L78.6597 27.4H81.1257L79.0197 40H76.5537ZM84.8517 40L86.9577 27.4H89.4237L87.3177 40H84.8517ZM79.2897 34.69L79.6497 32.422H87.2817L86.9217 34.69H79.2897ZM93.0057 40L94.7517 29.65H90.9717L91.3317 27.4H101.34L100.98 29.65H97.1997L95.4717 40H93.0057ZM100.835 37.696L109.205 29.47L112.193 29.704L104.075 37.696H100.835ZM100.457 40L100.835 37.696H110.789L110.411 40H100.457ZM102.239 29.704L102.617 27.4H112.571L112.193 29.704H102.239Z" fill="#04D404"/>
<defs>
<clipPath id="clip0_18017_1442">
<rect width="18" height="20" fill="white" transform="translate(47)"/>
</clipPath>
</defs>
</svg>
